<svg width="80" height="80" viewBox="0 0 80 80" fill="none" xmlns="http://www.w3.org/2000/svg">
<path d="M3.35156 56.1987V27.894H76.6466V56.1987" stroke="#F18C00" stroke-width="3" stroke-miterlimit="10"/>
<path d="M15.6836 36.272V79.9998" stroke="#F18C00" stroke-width="3" stroke-miterlimit="10"/>
<path d="M32.3516 36.272V79.9998" stroke="#F18C00" stroke-width="3" stroke-miterlimit="10"/>
<path d="M47.1934 36.272V79.9998" stroke="#F18C00" stroke-width="3" stroke-miterlimit="10"/>
<path d="M63.8613 36.272V79.9998" stroke="#F18C00" stroke-width="3" stroke-miterlimit="10"/>
<path d="M24.0165 18.0425C28.1148 18.0425 31.4371 14.7477 31.4371 10.6834C31.4371 6.61904 28.1148 3.32422 24.0165 3.32422C19.9181 3.32422 16.5957 6.61904 16.5957 10.6834C16.5957 14.7477 19.9181 18.0425 24.0165 18.0425Z" stroke="#F18C00" stroke-width="3" stroke-miterlimit="10"/>
<path d="M55.5261 18.0425C59.6245 18.0425 62.9468 14.7477 62.9468 10.6834C62.9468 6.61904 59.6245 3.32422 55.5261 3.32422C51.4278 3.32422 48.1055 6.61904 48.1055 10.6834C48.1055 14.7477 51.4278 18.0425 55.5261 18.0425Z" stroke="#F18C00" stroke-width="3" stroke-miterlimit="10"/>
</svg>
