<svg width="80" height="80" viewBox="0 0 80 80" fill="none" xmlns="http://www.w3.org/2000/svg">
<path d="M40 76.6244C60.227 76.6244 76.6244 60.2271 76.6244 40.0001C76.6244 19.7731 60.227 3.37573 40 3.37573C19.773 3.37573 3.37573 19.7731 3.37573 40.0001C3.37573 60.2271 19.773 76.6244 40 76.6244Z" stroke="#F18C00" stroke-width="3" stroke-miterlimit="10"/>
<path d="M40 76.6244C50.4785 76.6244 58.973 60.2271 58.973 40.0001C58.973 19.7731 50.4785 3.37573 40 3.37573C29.5215 3.37573 21.027 19.7731 21.027 40.0001C21.027 60.2271 29.5215 76.6244 40 76.6244Z" stroke="#F18C00" stroke-width="3" stroke-miterlimit="10"/>
<path d="M6.00549 28.3333H73.8987" stroke="#F18C00" stroke-width="3" stroke-miterlimit="10"/>
<path d="M6.00549 51.6667H73.8987" stroke="#F18C00" stroke-width="3" stroke-miterlimit="10"/>
<path d="M40 76.4553V3.54419" stroke="#F18C00" stroke-width="3" stroke-miterlimit="10"/>
</svg>
