<svg width="80" height="80" viewBox="0 0 80 80" fill="none" xmlns="http://www.w3.org/2000/svg">
<path fill-rule="evenodd" clip-rule="evenodd" d="M19.1225 57.3372C13.3572 51.5052 8.82007 44.5577 6.21865 39.583C8.82007 34.6083 13.3572 27.6608 19.1225 21.8288C25.3843 15.4948 32.705 10.8643 40.277 10.8643C47.849 10.8643 55.1697 15.4948 61.4315 21.8288C67.1968 27.6608 71.734 34.6083 74.3353 39.583C72.435 43.2168 69.49 47.9258 65.7722 52.4873C65.5817 52.7212 65.3893 52.9542 65.1953 53.1865L68.4913 57.0327C68.885 56.5717 69.2707 56.1092 69.648 55.6462C74.0048 50.3007 77.3695 44.761 79.3813 40.6908L79.929 39.583L79.3813 38.4752C76.7145 33.0798 71.6393 25.0425 64.9873 18.3137C58.3898 11.64 49.8507 5.86426 40.277 5.86426C30.7033 5.86426 22.1642 11.64 15.5667 18.3137C8.91473 25.0425 3.83943 33.0798 1.17257 38.4752L0.625 39.583L1.17257 40.6908C3.83943 46.0862 8.91473 54.1235 15.5667 60.8523C22.1642 67.526 30.7033 73.3018 40.277 73.3018C44.6145 73.3018 48.7375 72.1117 52.5388 70.213C52.75 70.1075 52.9605 69.9997 53.17 69.8897L49.8177 65.9777C46.7098 67.459 43.515 68.3018 40.277 68.3018C32.705 68.3018 25.3843 63.6713 19.1225 57.3372Z" fill="#F18C00"/>
<path d="M51.569 52.4998L68.3327 71.6665M51.569 52.4998C55.4808 49.2898 57.9624 44.5077 57.9624 39.1665C57.9624 29.5015 49.8372 21.6665 39.8142 21.6665C29.7912 21.6665 21.666 29.5015 21.666 39.1665C21.666 48.8315 29.7912 56.6665 39.8142 56.6665C44.2982 56.6665 48.4023 55.0983 51.569 52.4998Z" stroke="#F18C00" stroke-width="3"/>
</svg>
